<svg style="object-fit:cover" id="my-svg" version="1" baseProfile="full" width="100%" height="100%" viewBox="0 0 1366 657" xmlns="http://www.w3.org/2000/svg"><rect width="1366" height="657" fill="#000"/><path transform="scale(1, 1)" d="M 0,657 V 0,517 C 241.16666666666669,558.5 482.33333333333337,600 710,600 C 937.6666666666666,600 1151.8333333333333,558.5 1366,517 C 1366,517 1366,657 1366,657 Z" stroke="none" stroke-width="0" fill="#d9d9d9" class="transition-all duration-300 ease-in-out delay-150" style="transform-origin: center center;"/><path transform="scale(1, 1)" d="M 0,657 V 0,775 C 252.16666666666669,858.5 504.33333333333337,942 732,942 C 959.6666666666666,942 1162.8333333333333,858.5 1366,775 C 1366,775 1366,657 1366,657 Z" stroke="none" stroke-width="0" fill="#d9d9d9" class="transition-all duration-300 ease-in-out delay-150" style="transform-origin: center center;"/><path transform="scale(1, 1)" d="M 0,657 V 0,1163 C 198.16666666666669,1166.5 396.33333333333337,1170 624,1170 C 851.6666666666666,1170 1108.8333333333333,1166.5 1366,1163 C 1366,1163 1366,657 1366,657 Z" stroke="none" stroke-width="0" fill="#d9d9d9" class="transition-all duration-300 ease-in-out delay-150" style="transform-origin: center center;"/></svg>